<?xml version="1.0" encoding="UTF-8" standalone="no"?>
<!DOCTYPE svg PUBLIC "-//W3C//DTD SVG 1.1//EN" "http://www.w3.org/Graphics/SVG/1.1/DTD/svg11.dtd">
<svg width="100%" height="100%" viewBox="0 0 9934 7016" version="1.1"
    xmlns="http://www.w3.org/2000/svg" xmlnsXlink="http://www.w3.org/1999/xlink"
    xmlSpace="preserve" xmlnsSerif="http://www.serif.com/"
    style="fill-rule:evenodd;clip-rule:evenodd;stroke-linejoin:round;stroke-miterlimit:2;">
    <g transform="matrix(4.31738,0,0,4.31738,-5168.4,-16856.5)">
        <g transform="matrix(1712.86,0,0,1712.86,1415.68,5110.8)">
            <path d="M0.176,-0.219C0.178,-0.211 0.179,-0.207 0.18,-0.206L0.182,-0.203C0.185,-0.204 0.191,-0.207 0.2,-0.213C0.208,-0.218 0.217,-0.225 0.228,-0.232C0.238,-0.238 0.248,-0.245 0.259,-0.252C0.269,-0.259 0.278,-0.264 0.285,-0.267C0.291,-0.265 0.294,-0.264 0.294,-0.263L0.292,-0.261C0.256,-0.232 0.221,-0.199 0.188,-0.161C0.193,-0.116 0.197,-0.079 0.201,-0.049C0.204,-0.019 0.207,0.006 0.21,0.027C0.212,0.048 0.214,0.065 0.215,0.078C0.216,0.091 0.216,0.103 0.216,0.114C0.216,0.143 0.213,0.166 0.205,0.182C0.199,0.198 0.19,0.21 0.181,0.218C0.171,0.226 0.161,0.231 0.15,0.232C0.139,0.234 0.129,0.235 0.121,0.235C0.093,0.235 0.069,0.224 0.048,0.202C0.027,0.18 0.016,0.147 0.016,0.103C0.016,0.056 0.028,0.008 0.053,-0.039C0.078,-0.086 0.108,-0.13 0.145,-0.172C0.145,-0.177 0.143,-0.192 0.141,-0.215C0.138,-0.237 0.134,-0.265 0.129,-0.298C0.124,-0.33 0.118,-0.365 0.113,-0.403C0.107,-0.44 0.101,-0.476 0.095,-0.511C0.089,-0.547 0.083,-0.578 0.078,-0.607C0.073,-0.636 0.068,-0.657 0.065,-0.671C0.069,-0.672 0.073,-0.677 0.078,-0.684C0.083,-0.691 0.088,-0.694 0.093,-0.694L0.095,-0.694C0.095,-0.695 0.095,-0.695 0.096,-0.695C0.099,-0.695 0.102,-0.688 0.106,-0.673C0.109,-0.658 0.113,-0.638 0.117,-0.613C0.122,-0.588 0.127,-0.56 0.132,-0.527C0.137,-0.494 0.141,-0.461 0.147,-0.426C0.152,-0.391 0.157,-0.355 0.162,-0.32C0.167,-0.284 0.171,-0.25 0.176,-0.219ZM0.052,0.129C0.057,0.143 0.062,0.154 0.067,0.162C0.072,0.171 0.078,0.177 0.084,0.182C0.09,0.187 0.096,0.19 0.102,0.192C0.109,0.195 0.115,0.197 0.122,0.199L0.121,0.199C0.122,0.199 0.123,0.199 0.126,0.199C0.128,0.2 0.131,0.2 0.134,0.2C0.149,0.2 0.161,0.194 0.171,0.183C0.181,0.172 0.186,0.153 0.186,0.128C0.186,0.113 0.185,0.096 0.183,0.076C0.181,0.057 0.178,0.035 0.175,0.012C0.172,-0.011 0.168,-0.035 0.164,-0.06C0.16,-0.085 0.156,-0.111 0.153,-0.137C0.14,-0.12 0.127,-0.103 0.115,-0.086C0.103,-0.068 0.092,-0.049 0.083,-0.029C0.073,-0.01 0.065,0.011 0.059,0.033C0.054,0.056 0.051,0.08 0.051,0.106L0.051,0.117C0.051,0.121 0.051,0.125 0.052,0.129Z" style="fill:currentColor;fill-rule:nonzero;"/>
        </g>
        <g transform="matrix(1712.86,0,0,1712.86,1879.87,5110.8)">
            <path d="M0.09,-0.283C0.091,-0.284 0.096,-0.285 0.103,-0.288C0.11,-0.29 0.117,-0.291 0.123,-0.291C0.14,-0.291 0.155,-0.288 0.166,-0.282C0.177,-0.277 0.182,-0.265 0.182,-0.247C0.182,-0.227 0.178,-0.208 0.17,-0.191C0.161,-0.173 0.151,-0.156 0.138,-0.141C0.125,-0.125 0.111,-0.111 0.096,-0.098C0.081,-0.085 0.066,-0.073 0.052,-0.063C0.056,-0.052 0.062,-0.044 0.069,-0.04C0.076,-0.035 0.083,-0.033 0.092,-0.033C0.101,-0.033 0.111,-0.035 0.122,-0.04C0.132,-0.044 0.142,-0.049 0.152,-0.056C0.161,-0.062 0.17,-0.069 0.179,-0.076C0.188,-0.083 0.195,-0.089 0.201,-0.094C0.215,-0.106 0.226,-0.116 0.234,-0.125C0.243,-0.133 0.252,-0.143 0.261,-0.155C0.262,-0.156 0.262,-0.156 0.263,-0.156C0.264,-0.156 0.264,-0.155 0.264,-0.153L0.264,-0.147L0.261,-0.133C0.26,-0.132 0.255,-0.124 0.246,-0.11C0.236,-0.096 0.223,-0.081 0.208,-0.065C0.193,-0.049 0.175,-0.035 0.156,-0.021C0.137,-0.009 0.117,-0.002 0.097,-0.002C0.08,-0.002 0.066,-0.005 0.055,-0.011C0.043,-0.016 0.035,-0.023 0.029,-0.03C0.022,-0.037 0.018,-0.044 0.015,-0.051C0.012,-0.058 0.011,-0.062 0.011,-0.063C0.008,-0.074 0.006,-0.087 0.006,-0.101C0.006,-0.112 0.008,-0.126 0.011,-0.142C0.014,-0.16 0.018,-0.177 0.025,-0.195C0.032,-0.213 0.04,-0.23 0.051,-0.246C0.062,-0.262 0.075,-0.274 0.09,-0.283ZM0.046,-0.106C0.056,-0.111 0.067,-0.118 0.079,-0.128C0.091,-0.137 0.102,-0.147 0.113,-0.159C0.124,-0.171 0.133,-0.184 0.14,-0.199C0.147,-0.213 0.15,-0.228 0.15,-0.245C0.15,-0.251 0.148,-0.255 0.145,-0.257C0.141,-0.259 0.137,-0.26 0.132,-0.26C0.122,-0.26 0.112,-0.255 0.102,-0.245C0.091,-0.235 0.082,-0.222 0.074,-0.207C0.065,-0.192 0.059,-0.175 0.054,-0.157C0.049,-0.139 0.046,-0.122 0.046,-0.106Z" style="fill:currentColor;fill-rule:nonzero;"/>
        </g>
        <g transform="matrix(1712.86,0,0,1712.86,2308.08,5110.8)">
            <path d="M0.005,-0.3C0.018,-0.299 0.032,-0.298 0.047,-0.295C0.062,-0.292 0.077,-0.288 0.092,-0.282C0.107,-0.278 0.12,-0.272 0.133,-0.266C0.145,-0.259 0.155,-0.252 0.163,-0.244C0.173,-0.234 0.178,-0.218 0.178,-0.197C0.178,-0.178 0.175,-0.158 0.169,-0.135C0.162,-0.112 0.154,-0.091 0.144,-0.071C0.134,-0.051 0.123,-0.034 0.112,-0.021C0.1,-0.008 0.089,-0.001 0.079,-0.001C0.055,-0.001 0.037,-0.009 0.025,-0.024C0.014,-0.039 0.006,-0.055 0.002,-0.074C-0.003,-0.093 -0.005,-0.11 -0.004,-0.127C-0.003,-0.144 -0.003,-0.154 -0.003,-0.157C-0.003,-0.198 -0,-0.232 0.005,-0.259L-0.001,-0.268C-0.003,-0.271 -0.005,-0.273 -0.007,-0.276C-0.009,-0.278 -0.011,-0.28 -0.014,-0.282C-0.011,-0.283 -0.008,-0.286 -0.003,-0.29C0.001,-0.294 0.004,-0.297 0.005,-0.3ZM0.041,-0.062C0.044,-0.059 0.048,-0.055 0.053,-0.051C0.058,-0.047 0.063,-0.045 0.07,-0.045C0.078,-0.045 0.086,-0.049 0.094,-0.057C0.113,-0.076 0.127,-0.097 0.135,-0.118C0.143,-0.139 0.147,-0.159 0.147,-0.176C0.147,-0.189 0.146,-0.199 0.143,-0.207C0.141,-0.215 0.137,-0.222 0.13,-0.227C0.123,-0.232 0.112,-0.237 0.099,-0.242C0.086,-0.246 0.068,-0.251 0.047,-0.257C0.04,-0.236 0.036,-0.216 0.034,-0.196C0.031,-0.176 0.03,-0.157 0.03,-0.14C0.03,-0.121 0.031,-0.104 0.033,-0.091C0.035,-0.077 0.038,-0.067 0.041,-0.062Z" style="fill:currentColor;fill-rule:nonzero;"/>
        </g>
        <g transform="matrix(1712.86,0,0,1712.86,2647.23,5110.8)">
            <path d="M0.353,-0.526C0.351,-0.514 0.349,-0.501 0.346,-0.488C0.343,-0.475 0.341,-0.462 0.338,-0.45C0.335,-0.438 0.333,-0.428 0.331,-0.419C0.328,-0.41 0.327,-0.405 0.326,-0.403C0.322,-0.392 0.317,-0.377 0.31,-0.359C0.303,-0.341 0.296,-0.322 0.286,-0.303C0.278,-0.283 0.268,-0.263 0.257,-0.244C0.246,-0.225 0.234,-0.208 0.221,-0.193C0.221,-0.183 0.222,-0.166 0.225,-0.142C0.228,-0.119 0.231,-0.093 0.234,-0.066C0.236,-0.039 0.239,-0.012 0.243,0.014C0.246,0.041 0.247,0.061 0.248,0.076C0.247,0.077 0.245,0.078 0.244,0.078C0.238,0.078 0.233,0.07 0.229,0.054C0.224,0.038 0.22,0.018 0.217,-0.005C0.213,-0.028 0.209,-0.052 0.206,-0.078C0.203,-0.104 0.199,-0.127 0.194,-0.147C0.183,-0.134 0.171,-0.119 0.157,-0.102C0.142,-0.085 0.127,-0.07 0.112,-0.055C0.096,-0.04 0.08,-0.027 0.065,-0.017C0.049,-0.007 0.034,-0.002 0.02,-0.002C0.007,-0.002 -0.003,-0.007 -0.01,-0.016C-0.017,-0.025 -0.021,-0.035 -0.021,-0.048C-0.021,-0.065 -0.015,-0.084 -0.004,-0.103C0.007,-0.123 0.019,-0.142 0.034,-0.16C0.048,-0.177 0.062,-0.193 0.076,-0.206C0.09,-0.219 0.1,-0.229 0.106,-0.234C0.121,-0.244 0.133,-0.251 0.142,-0.256C0.151,-0.261 0.161,-0.263 0.172,-0.263L0.182,-0.263C0.181,-0.275 0.18,-0.289 0.18,-0.306C0.179,-0.323 0.179,-0.34 0.179,-0.357C0.179,-0.383 0.18,-0.408 0.181,-0.433C0.182,-0.457 0.183,-0.475 0.186,-0.486C0.187,-0.503 0.191,-0.521 0.198,-0.54C0.204,-0.559 0.212,-0.576 0.222,-0.593C0.231,-0.609 0.242,-0.622 0.255,-0.633C0.267,-0.644 0.28,-0.649 0.293,-0.649C0.306,-0.649 0.32,-0.642 0.333,-0.628C0.346,-0.615 0.353,-0.593 0.353,-0.563L0.353,-0.526ZM0.221,-0.259C0.232,-0.271 0.243,-0.287 0.255,-0.307C0.266,-0.327 0.277,-0.349 0.286,-0.375C0.295,-0.4 0.303,-0.427 0.309,-0.456C0.315,-0.485 0.318,-0.516 0.318,-0.547C0.318,-0.566 0.316,-0.582 0.313,-0.593C0.309,-0.604 0.302,-0.609 0.293,-0.609C0.284,-0.609 0.276,-0.605 0.268,-0.597C0.26,-0.588 0.253,-0.578 0.247,-0.566C0.24,-0.553 0.235,-0.54 0.231,-0.527C0.226,-0.513 0.223,-0.501 0.221,-0.491C0.218,-0.478 0.217,-0.466 0.216,-0.455C0.215,-0.444 0.214,-0.433 0.214,-0.422C0.213,-0.41 0.213,-0.397 0.212,-0.384C0.211,-0.37 0.21,-0.353 0.208,-0.333C0.208,-0.314 0.21,-0.296 0.213,-0.281C0.216,-0.266 0.218,-0.258 0.22,-0.258C0.22,-0.258 0.22,-0.258 0.221,-0.259ZM0.076,-0.166C0.058,-0.147 0.043,-0.128 0.033,-0.109C0.021,-0.09 0.016,-0.074 0.016,-0.062C0.016,-0.057 0.017,-0.051 0.019,-0.045C0.021,-0.038 0.026,-0.035 0.033,-0.035C0.045,-0.035 0.056,-0.04 0.065,-0.049C0.074,-0.058 0.084,-0.066 0.095,-0.075C0.102,-0.083 0.111,-0.092 0.122,-0.102C0.132,-0.111 0.142,-0.121 0.152,-0.132C0.161,-0.143 0.17,-0.154 0.177,-0.166C0.184,-0.177 0.187,-0.189 0.187,-0.2C0.187,-0.213 0.182,-0.225 0.173,-0.235C0.168,-0.235 0.164,-0.234 0.159,-0.233C0.154,-0.232 0.147,-0.229 0.14,-0.224C0.133,-0.219 0.124,-0.212 0.114,-0.203C0.103,-0.194 0.091,-0.181 0.076,-0.166Z" style="fill:currentColor;fill-rule:nonzero;"/>
        </g>
    </g>
</svg>